HIERARCHY
ROOT root
{
	OFFSET 0.000000 0.000000 0.000000
	CHANNELS 6 Xposition Yposition Zposition Zrotation Yrotation Xrotation
	JOINT lhip
	{
		OFFSET 0.058581 -0.082280 -0.017664
		CHANNELS 3 Zrotation Yrotation Xrotation
		JOINT lknee
		{
			OFFSET 0.043451 -0.386469 0.008037
			CHANNELS 3 Zrotation Yrotation Xrotation
			JOINT lankle
			{
				OFFSET -0.014790 -0.426874 -0.037428
				CHANNELS 3 Zrotation Yrotation Xrotation
				JOINT ltoe
				{
					OFFSET 0.041054 -0.060286 0.122042
					CHANNELS 3 Zrotation Yrotation Xrotation
					End Site
					{
						OFFSET 0.000000 0.000000 0.000000
					}
				}
			}
		}
	}
	JOINT rhip
	{
		OFFSET -0.060310 -0.090513 -0.013543
		CHANNELS 3 Zrotation Yrotation Xrotation
		JOINT rknee
		{
			OFFSET -0.043257 -0.383688 -0.004843
			CHANNELS 3 Zrotation Yrotation Xrotation
			JOINT rankle
			{
				OFFSET 0.019056 -0.420046 -0.034562
				CHANNELS 3 Zrotation Yrotation Xrotation
				JOINT rtoe
				{
					OFFSET -0.034840 -0.062106 0.130323
					CHANNELS 3 Zrotation Yrotation Xrotation
					End Site
					{
						OFFSET 0.000000 0.000000 0.000000
					}
				}
			}
		}
	}
	JOINT lowerback
	{
		OFFSET 0.004439 0.124404 -0.038385
		CHANNELS 3 Zrotation Yrotation Xrotation
		JOINT upperback
		{
			OFFSET 0.004488 0.137956 0.026820
			CHANNELS 3 Zrotation Yrotation Xrotation
			JOINT chest
			{
				OFFSET -0.002265 0.056032 0.002855
				CHANNELS 3 Zrotation Yrotation Xrotation
				JOINT lowerneck
				{
					OFFSET -0.013390 0.211636 -0.033468
					CHANNELS 3 Zrotation Yrotation Xrotation
					JOINT upperneck
					{
						OFFSET 0.010113 0.088937 0.050410
						CHANNELS 3 Zrotation Yrotation Xrotation
						End Site
						{
							OFFSET 0.000000 0.000000 0.000000
						}
					}
				}
				JOINT lclavicle
				{
					OFFSET 0.071702 0.114000 -0.018898
					CHANNELS 3 Zrotation Yrotation Xrotation
					JOINT lshoulder
					{
						OFFSET 0.122921 0.045205 -0.019046
						CHANNELS 3 Zrotation Yrotation Xrotation
						JOINT lelbow
						{
							OFFSET 0.255332 -0.015649 -0.022946
							CHANNELS 3 Zrotation Yrotation Xrotation
							JOINT lwrist
							{
								OFFSET 0.265709 0.012698 -0.007375
								CHANNELS 3 Zrotation Yrotation Xrotation
								End Site
								{
									OFFSET 0.000000 0.000000 0.000000
								}
							}
						}
					}
				}
				JOINT rclavicle
				{
					OFFSET -0.082954 0.112472 -0.023707
					CHANNELS 3 Zrotation Yrotation Xrotation
					JOINT rshoulder
					{
						OFFSET -0.113228 0.046853 -0.008472
						CHANNELS 3 Zrotation Yrotation Xrotation
						JOINT relbow
						{
							OFFSET -0.260127 -0.014369 -0.031269
							CHANNELS 3 Zrotation Yrotation Xrotation
							JOINT rwrist
							{
								OFFSET -0.269108 0.006794 -0.006027
								CHANNELS 3 Zrotation Yrotation Xrotation
								End Site
								{
									OFFSET 0.000000 0.000000 0.000000
								}
							}
						}
					}
				}
			}
		}
	}
}
MOTION
Frames: 17
Frame Time: 0.033333
-0.892849 -1.669922 0.945834 148.197586 0.732171 96.834325 11.620741 9.803223 -27.972891 -5.227310 18.419007 59.864193 5.726870 6.887347 -27.624242 0.000000 -0.000000 0.000000 -16.881311 -9.944500 -4.970886 4.411536 -2.936424 25.591543 0.960665 0.812020 -29.618649 0.000000 -0.000000 0.000000 7.953167 -0.787258 15.592658 3.861101 -5.671759 4.617296 -0.024208 -3.576885 0.838607 -1.400369 -5.461699 -8.781669 -2.879357 4.606202 -9.899456 -34.117510 1.684179 7.976682 -55.984985 2.478343 14.940644 -169.659895 -83.670870 -174.740166 26.715808 -3.985051 -28.406563 23.794384 2.881723 6.995825 46.834832 -2.391294 19.616327 178.354537 85.229621 -170.116532 -16.451273 8.685617 -11.255978 
-0.883651 -1.643506 0.939422 147.934442 -0.000894 97.130137 16.109978 12.122907 -30.404029 -7.216482 16.953984 52.850057 4.673769 5.796581 -26.529672 0.000000 -0.000000 0.000000 -18.684533 -10.642659 -2.371982 4.552484 -3.577152 24.129635 1.456982 0.063190 -29.738930 0.000000 -0.000000 0.000000 4.321184 2.504847 16.342266 3.481620 -4.381215 4.653053 0.688813 -2.303151 0.537798 -0.470096 -4.262269 -9.662184 -0.994781 -0.520796 -7.458027 -32.739266 3.274263 7.976451 -51.929805 2.416527 13.414175 -177.284722 -85.001307 -167.851936 23.115878 -4.986401 -33.237476 26.087896 3.518255 7.361076 48.978955 -0.792540 20.531746 142.343483 88.174208 155.877128 -15.271465 9.543782 -9.114393 
-0.875038 -1.615360 0.930732 147.872847 -0.683792 97.302650 20.033522 12.135754 -31.533595 -9.004824 12.344612 43.102754 1.473406 4.712714 -23.536133 0.000000 -0.000000 0.000000 -20.488596 -11.251775 -0.850695 4.767438 -3.521846 25.175927 2.152576 -0.114886 -31.124936 0.000000 -0.000000 0.000000 0.393083 6.145734 17.608156 2.785554 -2.770191 3.716288 1.239313 -0.791542 0.445115 1.745412 -4.803421 -12.396765 1.714280 -9.150328 -4.071316 -30.080762 4.355277 7.359223 -48.273712 2.133656 12.687352 161.769018 -83.947425 -148.291101 21.158097 -4.850730 -37.516238 27.951816 4.239795 6.584010 51.655469 0.716385 21.559154 47.107362 88.163783 63.528395 -14.579081 10.003508 -4.200893 
-0.861790 -1.578256 0.911514 145.418664 -0.068122 96.469389 25.724007 13.911884 -29.276834 -9.083048 4.781519 33.983651 -4.410408 -0.290809 -15.211211 0.000000 -0.000000 0.000000 -21.545158 -12.881392 -1.982473 2.706901 -5.686346 33.593703 3.349742 1.561358 -34.110231 0.000000 -0.000000 0.000000 -4.427722 11.672982 19.667487 1.189281 0.520031 6.058706 2.194342 2.123739 -3.550047 3.359148 -6.249556 -14.009588 7.799824 -20.811230 -1.225031 -26.167878 2.537028 5.270938 -44.653197 2.695327 9.270993 154.447847 -80.919012 -142.770452 17.309506 -6.573859 -40.697469 28.756856 8.229366 6.913274 54.295181 -0.152471 18.296414 56.754065 86.995521 71.817934 -16.124642 9.747176 -3.601845 
-0.856727 -1.554682 0.895177 143.254174 0.473775 96.012577 29.487511 13.604863 -26.627315 -9.478435 3.372950 33.041299 -6.079636 0.242815 -16.275462 0.000000 -0.000000 0.000000 -21.930397 -13.354545 -5.096903 0.723154 -8.086470 42.510324 3.325669 -0.830263 -34.917982 0.000000 -0.000000 0.000000 -6.788669 13.850126 20.872745 -0.125325 3.182161 6.062353 1.404463 4.024901 -4.233612 4.849124 -7.441973 -14.744985 12.139749 -27.207597 -2.538188 -24.623347 1.909098 3.820368 -41.842414 0.039596 8.746627 146.086217 -78.419889 -134.625188 16.495536 -4.729904 -41.770689 29.382778 9.464800 7.080547 56.034693 0.732021 16.930591 -6.064108 86.658538 9.333684 -16.343491 9.206058 -3.995651 
-0.850652 -1.523099 0.876300 140.762970 0.005754 93.919025 31.374210 14.885842 -23.763940 -10.797505 5.594035 40.172173 -5.443720 -3.174794 -23.666221 0.000000 -0.000000 0.000000 -23.562467 -14.356535 -8.695543 -4.310992 -9.215084 55.164281 3.643503 -3.136966 -33.146732 0.000000 -0.000000 0.000000 -9.776628 17.726084 25.114571 -1.866922 4.402639 6.213729 1.001147 4.534600 -6.113314 6.758254 -9.807007 -14.706084 17.322630 -32.322689 -6.259104 -25.217168 0.179344 2.410617 -38.420565 -3.993904 6.695960 136.957843 -73.269798 -127.452908 13.732917 -7.746554 -43.186090 30.945944 11.440086 5.754320 56.710739 1.514844 15.972204 -35.470603 80.166777 -22.883488 -14.289629 7.874329 -3.356250 
-0.841309 -1.497093 0.864652 141.941957 -0.610465 91.883743 30.910069 16.457129 -23.292378 -10.233512 5.648526 45.788016 -4.643199 -5.649041 -26.915253 0.000000 -0.000000 0.000000 -24.332441 -15.547338 -10.420217 -6.887540 -8.415922 64.413555 4.024995 -2.674549 -29.416219 0.000000 -0.000000 0.000000 -11.544812 20.681257 31.323770 -2.633001 2.669495 5.906266 1.604042 3.266958 -8.135370 7.833676 -11.497744 -14.837192 19.933283 -33.788152 -6.693690 -26.836078 -3.424047 1.623413 -36.439847 -8.471619 5.493551 129.002162 -67.434332 -120.409503 13.763187 -7.137110 -42.127751 32.377459 14.290165 5.546759 56.596077 1.275716 14.477832 -37.324661 70.799423 -29.060472 -13.501066 6.818426 -2.953209 
-0.829591 -1.470903 0.854137 145.312241 0.040974 90.730857 31.336409 15.922859 -23.837242 -10.863052 3.353502 49.389574 -4.202264 -6.529941 -30.577439 0.000000 -0.000000 0.000000 -24.212678 -16.375261 -11.019095 -6.924720 -8.597044 71.166931 5.191854 0.353086 -27.778813 0.000000 -0.000000 0.000000 -11.117385 20.500236 36.773312 -2.874067 0.709295 4.432288 1.832682 1.939220 -8.169820 8.722237 -12.400788 -15.253111 21.522469 -34.721365 -5.057012 -27.641281 -7.171150 0.431232 -37.013285 -15.174828 4.639809 129.988273 -62.387453 -117.311514 14.336458 -6.876168 -38.608474 32.207695 15.565603 5.337356 56.816185 0.079826 11.223520 -32.088718 61.760378 -27.239027 -12.314548 6.028166 -6.855073 
-0.811682 -1.447443 0.847957 147.356278 0.205448 90.309945 31.632270 16.051964 -23.275929 -11.119671 1.549168 50.891047 -3.884813 -6.974726 -32.972610 0.000000 -0.000000 0.000000 -24.377953 -17.320933 -13.182039 -6.388169 -8.408343 77.100300 6.080185 4.267376 -27.077500 0.000000 -0.000000 0.000000 -11.788840 21.368901 41.483877 -2.739794 -1.104467 2.485836 2.626661 0.295084 -8.369818 9.298707 -12.420451 -14.882944 22.556308 -35.396965 -3.510812 -28.025361 -11.450714 -0.816070 -36.296119 -22.932493 4.355471 137.985749 -58.136096 -119.346854 14.292918 -7.383067 -32.099635 32.128042 15.800498 5.296486 56.134499 -2.400749 7.928881 -26.695931 53.499011 -23.664169 -11.382830 5.432126 -8.890581 
-0.785484 -1.419995 0.841658 149.168419 0.551441 90.730971 32.148900 16.897663 -22.190666 -11.151710 -1.112226 50.477321 -3.286313 -6.320439 -34.764006 0.000000 -0.000000 0.000000 -24.954392 -19.304862 -17.828376 -6.290731 -8.846328 82.570261 8.477278 6.178011 -26.095852 0.000000 -0.000000 0.000000 -12.342509 20.104810 45.380656 -2.039506 -3.226290 0.021580 3.419207 -1.518467 -8.197768 7.963857 -12.382780 -13.771021 22.643850 -33.837712 -2.267571 -27.966067 -17.203757 -2.298802 -32.085846 -32.082120 4.479427 150.631089 -55.408974 -127.838695 15.583560 -8.584557 -17.945231 32.002481 16.237724 6.102779 53.695986 -6.419691 4.532620 -21.853883 46.224194 -23.026833 -10.982890 5.250856 -8.053272 
-0.758768 -1.400279 0.837309 149.556071 0.408246 92.726257 32.662974 17.991787 -21.238667 -11.722372 -3.039747 48.314829 -4.236957 -4.345230 -34.682949 0.000000 -0.000000 0.000000 -24.916661 -20.691229 -25.112967 -6.207149 -9.662406 86.600073 8.443538 4.755061 -26.610259 0.000000 -0.000000 0.000000 -16.454495 15.886336 44.786648 -0.600987 -3.497489 -3.881283 4.338395 -1.992318 -6.173746 6.338537 -11.291542 -11.669976 22.803181 -31.552545 -2.322723 -25.290040 -20.384232 -1.688412 -28.593859 -37.454241 3.684512 161.943770 -54.952309 -133.207578 20.676264 -8.385570 -8.855343 30.638976 15.248627 7.285665 52.879081 -8.361811 1.599342 -18.608630 43.103981 -20.730652 -10.985846 4.652717 -11.810878 
-0.725265 -1.378363 0.840049 147.986439 0.386333 93.083085 34.059807 18.835201 -15.597279 -12.159429 -5.336972 43.667920 -5.191869 -1.991188 -34.818467 0.000000 -0.000000 0.000000 -24.573071 -21.836355 -31.905181 -5.572180 -10.762314 89.745169 8.362644 4.335591 -26.669282 0.000000 -0.000000 0.000000 -16.221070 12.950119 44.742292 0.505568 -4.903673 -4.584296 4.065235 -4.127044 -5.421298 5.780741 -9.198337 -13.326088 21.189766 -30.742173 -0.665707 -21.673529 -21.838556 -2.752266 -27.423199 -38.298437 5.597943 171.837634 -56.588912 -139.043533 25.310966 -8.884472 -2.900859 28.229454 14.064900 6.349460 53.182079 -10.682508 0.345797 -19.234589 42.991417 -22.652895 -11.003184 3.671236 -14.804706 
-0.684305 -1.353926 0.846401 145.037790 1.025101 95.866519 35.307336 18.220682 -9.521205 -10.425880 -5.914601 36.366863 -6.311839 1.186075 -34.049436 0.000000 -0.000000 0.000000 -22.292166 -22.194046 -41.429581 -5.477135 -15.435252 92.671653 7.095881 3.998682 -27.127375 0.000000 -0.000000 0.000000 -15.805002 6.115196 37.945837 0.096187 -4.468616 -1.263442 3.207504 -5.357361 -6.113543 6.281217 -6.489218 -12.604491 18.416312 -27.146405 -0.333267 -22.522214 -19.450885 -2.257956 -25.871814 -33.123559 9.153128 179.183173 -61.358588 -147.312864 26.514936 -10.584271 2.504338 28.032429 10.421556 5.001477 51.236936 -11.761927 1.188990 -21.038412 43.847308 -27.422515 -11.997058 3.396056 -13.977541 
-0.631914 -1.326735 0.852048 141.356298 3.507533 101.890186 36.679103 17.483413 -4.568115 -7.170048 -5.434422 27.312623 -7.883300 6.215558 -29.335299 0.000000 -0.000000 0.000000 -15.619008 -21.050132 -53.274636 -3.560275 -22.260977 93.558335 5.710799 3.013253 -26.454908 0.000000 -0.000000 0.000000 -10.991555 -3.545446 26.395158 0.218969 -4.070102 -0.597664 -0.294702 -6.059062 -3.884673 6.495162 -2.823115 -12.269665 14.308945 -20.628110 2.070620 -24.311414 -14.940765 -1.908561 -25.996654 -22.519839 10.292728 -169.465104 -72.139028 -158.327398 26.619350 -14.475224 8.386831 26.463313 6.916086 5.105293 51.489287 -11.281878 -0.747909 -22.830707 46.944867 -25.144442 -11.284987 4.343557 -12.460847 
-0.570022 -1.293720 0.864830 135.677230 3.524772 103.294516 34.725348 15.631086 4.004008 -2.770577 -3.178927 20.862814 -10.334921 11.609215 -17.960717 0.000000 -0.000000 0.000000 -11.120332 -17.569564 -57.782008 -1.025629 -26.912768 91.777712 3.367762 2.726187 -23.575507 0.000000 -0.000000 0.000000 -8.333403 -8.432345 21.288131 0.665164 -3.648723 -0.188686 -1.530041 -6.825150 -2.675204 6.376305 1.847277 -12.251122 9.818086 -12.518577 3.061594 -26.334492 -12.386716 -1.499293 -25.258421 -14.555199 10.725027 -58.342283 -85.110245 90.089597 25.280002 -19.043587 18.466342 25.465032 5.000989 4.248573 50.149676 -9.578257 -0.256940 -23.530057 48.992102 -23.034570 -10.740203 5.307005 -11.968958 
-0.505188 -1.262980 0.876984 128.868015 2.316092 102.451057 29.194413 11.589357 9.905710 -1.100652 -4.555828 23.290156 -4.350602 16.182831 -6.571894 0.000000 -0.000000 0.000000 -6.755969 -12.605255 -56.489587 1.972046 -27.465683 87.521865 -0.272435 0.777169 -19.089538 0.000000 -0.000000 0.000000 -7.311023 -10.063508 19.228534 1.268279 -4.295826 2.382789 -1.113750 -7.478722 -2.770595 4.309150 5.989590 -11.546407 6.656211 -3.776831 0.061865 -27.533903 -13.483058 -0.253311 -25.404793 -10.696029 10.649047 -2.216723 -64.286101 30.745604 18.448814 -16.977154 21.129514 25.831252 7.550576 5.162580 47.646443 -5.365405 2.638000 -24.096757 48.924972 -23.839944 -10.213073 5.021146 -16.352844 
-0.444793 -1.234377 0.883593 123.026389 0.191879 101.389079 19.992601 5.687886 9.009665 -8.186030 -10.077823 39.620434 -4.408126 9.093147 -9.657537 0.000000 -0.000000 0.000000 -4.132027 -7.040820 -49.700704 4.205779 -24.285081 80.098245 0.622174 0.135567 -16.795254 0.000000 -0.000000 0.000000 -6.557570 -9.230598 19.731805 2.157262 -6.196664 4.557136 -0.244840 -7.473051 -3.388639 1.604678 9.034349 -10.745444 3.385195 2.835661 -5.315781 -28.303327 -16.938246 -0.030748 -28.453929 -10.589497 9.746941 8.069316 -37.597307 8.156225 8.514194 -9.291933 11.090854 27.162548 11.130338 4.264803 45.042408 0.149399 7.160675 -24.319687 46.292195 -26.746304 -9.034064 3.295211 -20.409800 
